<svg width="45" height="86" viewBox="0 0 45 86" fill="none" xmlns="http://www.w3.org/2000/svg">
<path d="M14.9484 64.0003L14.9484 39.8003H5.60844L5.60844 34.4003H30.7884L30.7884 39.8003H21.4684L21.4684 64.0003H14.9484Z" fill="white"/>
<path d="M25.2098 66.544C23.2044 66.544 21.5938 65.9893 20.3778 64.88C19.1831 63.7707 18.5858 62.2667 18.5858 60.368C18.5858 58.448 19.1724 56.9333 20.3458 55.824C21.5404 54.7147 23.1618 54.16 25.2098 54.16C27.2578 54.16 28.8684 54.7253 30.0418 55.856C31.2364 56.9867 31.8338 58.4907 31.8338 60.368C31.8338 62.224 31.2258 63.7173 30.0098 64.848C28.8151 65.9787 27.2151 66.544 25.2098 66.544Z" fill="#333333"/>
</svg>
