<svg width="80" height="80" viewBox="0 0 80 80" fill="none" xmlns="http://www.w3.org/2000/svg">
<g clip-path="url(#clip0_223_2)">
<path d="M18.75 0.5H61.25C71.3292 0.5 79.5 8.6708 79.5 18.75V61.25C79.5 71.3292 71.3292 79.5 61.25 79.5H18.75C8.6708 79.5 0.5 71.3292 0.5 61.25V18.75C0.5 8.6708 8.6708 0.5 18.75 0.5Z" fill="#242938" stroke="#FF5733"/>
<circle cx="33" r="20" fill="#FF5733"/>
<circle cx="-4" cy="50" r="13" fill="#FF5733"/>
<circle cx="60.5" cy="32.5" r="7.5" fill="#FF5733"/>
<circle cx="53" cy="74" r="11" fill="#FF5733"/>
<path d="M44.936 72.96C38.856 72.96 34.472 71.776 31.784 69.408C29.16 66.976 27.848 62.944 27.848 57.312L27.848 33.408L17.192 33.408L17.192 22.08L27.848 22.08L27.848 5.75999L41.288 5.75999L41.288 22.08L57.512 22.08L57.512 33.408L41.288 33.408L41.288 54.048C41.288 56.864 41.736 58.784 42.632 59.808C43.592 60.768 45.384 61.248 48.008 61.248C49.736 61.248 51.4 61.088 53 60.768C54.664 60.448 56.168 60 57.512 59.424L57.512 71.136C55.464 71.776 53.416 72.224 51.368 72.48C49.32 72.8 47.176 72.96 44.936 72.96Z" fill="white"/>
</g>
<defs>
<clipPath id="clip0_223_2">
<rect width="80" height="80" fill="white"/>
</clipPath>
</defs>
</svg>
