<svg width="80" height="80" viewBox="0 0 80 80" fill="none" xmlns="http://www.w3.org/2000/svg">
<g id="skill-icons:expressjs-light" clip-path="url(#clip0_207_36)">
<g id="Group">
<path id="Vector" d="M61.25 0H18.75C8.39466 0 0 8.39466 0 18.75V61.25C0 71.6053 8.39466 80 18.75 80H61.25C71.6053 80 80 71.6053 80 61.25V18.75C80 8.39466 71.6053 0 61.25 0Z" fill="#F4F2ED"/>
<path id="Vector_2" d="M71.25 57.1678C70.3403 57.5124 69.3358 57.5117 68.4266 57.1659C67.5173 56.8201 66.7662 56.1532 66.3153 55.2913C63.4831 51.0516 60.3556 47.0031 57.3497 42.8678L56.0463 41.1303C52.4669 45.9259 48.8875 50.5303 45.6209 55.3088C45.1955 56.1326 44.485 56.7737 43.6219 57.1125C42.7589 57.4514 41.802 57.4649 40.9297 57.1506L54.3609 39.1322L41.8678 22.8509C42.7671 22.5262 43.7509 22.5217 44.6532 22.8383C45.5554 23.1548 46.3207 23.773 46.82 24.5884C49.7216 28.8284 52.9363 32.8769 56.1331 37.1688C59.3478 32.9116 62.5275 28.8456 65.4987 24.6406C65.9266 23.8302 66.6374 23.2053 67.4961 22.8849C68.3547 22.5645 69.3012 22.571 70.1553 22.9031L65.3075 29.3322C63.1356 32.1991 60.9984 35.0834 58.7397 37.8809C58.5576 38.0439 58.4119 38.2434 58.3121 38.4664C58.2124 38.6895 58.1608 38.9311 58.1608 39.1755C58.1608 39.4198 58.2124 39.6614 58.3121 39.8845C58.4119 40.1076 58.5576 40.3071 58.7397 40.47C62.8925 45.9781 67.0103 51.5034 71.25 57.1678ZM8.75 38.9063C9.115 37.1688 9.34063 35.2747 9.84469 33.5025C12.8506 22.8166 25.1003 18.3681 33.5275 24.9884C38.4622 28.8634 39.6959 34.3541 39.4528 40.5397H11.6519C11.2 51.5906 19.1753 58.2628 29.3747 54.8572C31.0292 54.2653 32.5102 53.2707 33.6842 51.9633C34.8582 50.6558 35.6881 49.0766 36.0991 47.3681C36.6378 45.6306 37.5066 45.3353 39.1572 45.8391C38.8854 47.9544 38.1375 49.9806 36.9699 51.7653C35.8022 53.5499 34.2451 55.0466 32.4156 56.1428C29.393 57.7959 25.9251 58.4508 22.5078 58.0139C19.0905 57.577 15.8989 56.0707 13.3894 53.7103C10.9067 50.9188 9.4055 47.3917 9.115 43.6672C9.115 43.0766 8.88906 42.4856 8.7675 41.9297C8.756 40.9219 8.75017 39.9141 8.75 38.9063ZM11.6866 38.1591H36.8291C36.6725 30.1491 31.6162 24.4672 24.8747 24.4153C17.3684 24.3109 11.9994 29.8709 11.6691 38.1244L11.6866 38.1591Z" fill="#0F0F0F"/>
</g>
</g>
<defs>
<clipPath id="clip0_207_36">
<rect width="80" height="80" fill="white"/>
</clipPath>
</defs>
</svg>
