<svg width="80" height="80" viewBox="0 0 80 80" fill="none" xmlns="http://www.w3.org/2000/svg">
<g id="skill-icons:postgresql-light" clip-path="url(#clip0_207_2)">
<g id="Group">
<path id="Vector" d="M61.25 0H18.75C8.39466 0 0 8.39466 0 18.75V61.25C0 71.6053 8.39466 80 18.75 80H61.25C71.6053 80 80 71.6053 80 61.25V18.75C80 8.39466 71.6053 0 61.25 0Z" fill="#F4F2ED"/>
<g id="Clip path group">
<mask id="mask0_207_2" style="mask-type:luminance" maskUnits="userSpaceOnUse" x="11" y="11" width="58" height="58">
<g id="skillIconsPostgresqlLight0">
<path id="Vector_2" d="M11.875 11.875H68.125V68.125H11.875V11.875Z" fill="white"/>
</g>
</mask>
<g mask="url(#mask0_207_2)">
<g id="Group_2">
<path id="Vector_3" d="M53.5856 52.8231C53.9437 49.8416 53.8362 49.4066 56.0553 49.8878L56.62 49.9381C58.3275 50.015 60.5597 49.6634 61.8934 49.055C64.7172 47.7453 66.3912 45.5569 63.6075 46.1325C57.2572 47.4422 56.7959 45.2909 56.7959 45.2909C63.5041 35.3375 66.31 22.7031 63.8866 19.6116C57.2859 11.1741 45.8578 15.1644 45.6669 15.2697L45.6053 15.2806C44.3528 15.0172 42.9684 14.8631 41.3644 14.8412C38.4906 14.7975 36.3109 15.595 34.6541 16.8497C34.6541 16.8497 14.27 8.45155 15.2169 27.4119C15.4191 31.4459 20.9959 57.9537 27.6534 49.9337C30.0903 47.0028 32.4416 44.5262 32.4416 44.5262C33.6059 45.3019 35.0056 45.6975 36.4712 45.5547L36.5853 45.4581C36.5516 45.8379 36.5672 46.2204 36.6316 46.5962C34.9178 48.5122 35.4231 48.8484 31.9953 49.5537C28.5281 50.2678 30.5672 51.54 31.8944 51.8741C33.5072 52.2784 37.2381 52.8497 39.7606 49.3209L39.6594 49.7228C40.3319 50.2612 40.2856 53.59 40.3844 55.9675C40.4834 58.345 40.6394 60.5666 41.125 61.8737C41.6106 63.1812 42.1797 66.5541 46.6841 65.6091C50.4481 64.8028 53.3266 63.6403 53.59 52.8431" fill="black"/>
<path id="Vector_4" d="M53.5856 52.8231C53.9437 49.8416 53.8362 49.4066 56.0553 49.8878L56.62 49.9381C58.3275 50.015 60.5597 49.6634 61.8934 49.055C64.7172 47.7453 66.3912 45.5569 63.6075 46.1325C57.2572 47.4422 56.7959 45.2909 56.7959 45.2909C63.5041 35.3375 66.31 22.7031 63.8866 19.6116C57.2859 11.1741 45.8578 15.1644 45.6669 15.2697L45.6053 15.2806C44.3528 15.0172 42.9684 14.8631 41.3644 14.8412C38.4906 14.7975 36.3109 15.595 34.6541 16.8497C34.6541 16.8497 14.27 8.45155 15.2169 27.4119C15.4191 31.4459 20.9959 57.9537 27.6534 49.9337C30.0903 47.0028 32.4416 44.5262 32.4416 44.5262C33.6059 45.3019 35.0056 45.6975 36.4712 45.5547L36.5853 45.4581C36.5516 45.8379 36.5671 46.2204 36.6316 46.5962C34.9178 48.5122 35.4231 48.8484 31.9953 49.5537C28.5281 50.2678 30.5672 51.54 31.8944 51.8741C33.5072 52.2784 37.2381 52.8497 39.7606 49.3209L39.6594 49.7228C40.3319 50.2612 40.2856 53.59 40.3844 55.9675C40.4834 58.345 40.6394 60.5666 41.125 61.8737C41.6106 63.1812 42.1797 66.5541 46.6841 65.6091C50.4481 64.8028 53.3266 63.6403 53.59 52.8431" stroke="black"/>
<path id="Vector_5" d="M63.5875 46.1525C57.2375 47.4619 56.7763 45.3109 56.7763 45.3109C63.4844 35.3572 66.2903 22.7228 63.8688 19.6312C57.2685 11.1937 45.8403 15.1862 45.6491 15.2897L45.5875 15.3006C44.1917 15.0205 42.7726 14.8725 41.3491 14.8587C38.475 14.815 36.2953 15.6125 34.6388 16.8672C34.6388 16.8672 14.2525 8.46937 15.2016 27.4297C15.4038 31.4637 20.9803 57.9716 27.6381 49.9516C30.0903 47.0028 32.4416 44.5262 32.4416 44.5262C33.6059 45.3019 35.0056 45.6975 36.4713 45.5547L36.5853 45.4581C36.5519 45.8379 36.5675 46.2204 36.6316 46.5962C34.9178 48.5122 35.4231 48.8484 31.9953 49.5537C28.5281 50.2678 30.5672 51.54 31.8944 51.8741C33.5072 52.2784 37.2381 52.8497 39.7606 49.3209L39.6594 49.7228C40.3319 50.2612 40.8019 53.2231 40.7228 55.9081C40.6438 58.5934 40.5909 60.4347 41.1184 61.8759C41.6456 63.3175 42.1731 66.5562 46.6775 65.6112C50.4416 64.805 52.3903 62.7109 52.665 59.2262C52.8584 56.7475 53.2934 57.1122 53.3244 54.8975L53.6759 53.8472C54.0778 50.4853 53.7416 49.4022 56.0597 49.9075L56.6244 49.9581C58.3319 50.035 60.5666 49.6834 61.876 49.0747C64.6994 47.7653 66.3738 45.5766 63.59 46.1525H63.5875Z" fill="#336791"/>
<path id="Vector_6" d="M45.6469 15.1862C44.9438 15.4059 56.9937 10.7809 63.8447 19.5325C66.2619 22.6241 63.4603 35.2584 56.7519 45.2119M40.0306 48.0575C39.855 54.3109 40.0747 60.6081 40.6856 62.12C41.2962 63.6316 42.6081 66.6244 47.1147 65.6619C50.8787 64.8556 52.2497 63.2931 52.8431 59.8456L54.2337 48.8222L40.0306 48.0575ZM34.63 16.7091C34.63 16.7091 14.2303 8.36843 15.1797 27.3281C15.3819 31.3622 20.9584 57.87 27.6163 49.85C30.0463 46.9209 32.2438 44.6294 32.2438 44.6294L34.63 16.7087V16.7091Z" stroke="white" stroke-linecap="round" stroke-linejoin="round"/>
<path id="Vector_7" d="M56.7541 45.2075C56.7541 45.2075 57.1937 47.3609 63.5656 46.0469C66.3497 45.4713 64.6731 47.6597 61.8519 48.9694C59.5359 50.0459 54.3416 50.3206 54.2559 48.8375C54.0362 45.0031 56.9894 46.1678 56.7762 45.2075C56.5828 44.3419 55.26 43.4937 54.39 41.3756C53.6275 39.5297 43.9309 25.3575 57.0794 27.46C57.5628 27.3613 53.6516 14.9359 41.3469 14.7556C29.0422 14.5753 29.4312 29.8837 29.4312 29.8837" stroke="white" stroke-linecap="round" stroke-linejoin="bevel"/>
<path id="Vector_8" d="M36.5875 46.5216C34.8737 48.4375 35.3791 48.7737 31.9516 49.479C28.4841 50.1931 30.5234 51.4653 31.8503 51.7994C33.4631 52.2037 37.1941 52.775 39.7166 49.2437C40.4856 48.1672 39.7122 46.4534 38.6575 46.0184C38.1478 45.8075 37.4666 45.5437 36.5922 46.5237L36.5875 46.5216Z" stroke="white" stroke-linejoin="round"/>
<path id="Vector_9" d="M36.4756 46.4884C36.2997 45.3612 36.8447 44.0231 37.4269 42.4544C38.3016 40.1034 40.3187 37.7522 38.7059 30.2881C37.5037 24.7287 29.4334 29.13 29.4334 29.8837C29.4334 30.6375 29.7981 33.7072 29.3016 37.2775C28.6491 41.9403 32.2678 45.8822 36.4337 45.48" stroke="white" stroke-linecap="round" stroke-linejoin="round"/>
<path id="Vector_10" d="M34.5553 29.7719C34.5178 30.0287 35.0275 30.7166 35.6891 30.8087C36.3503 30.9012 36.915 30.365 36.9525 30.1056C36.9897 29.8462 36.48 29.565 35.8188 29.4728C35.1572 29.3806 34.5881 29.5169 34.5553 29.7719Z" fill="white" stroke="white"/>
<path id="Vector_11" d="M54.6909 29.2469C54.7259 29.5037 54.2184 30.1912 53.5572 30.2837C52.8956 30.3759 52.3266 29.84 52.2937 29.5806C52.2606 29.3212 52.7662 29.04 53.4275 28.9478C54.0887 28.8556 54.6578 28.9919 54.6909 29.2469Z" fill="white" stroke="white"/>
<path id="Vector_12" d="M57.0553 27.4647C57.165 29.4862 56.62 30.8594 56.5497 33.0106C56.4487 36.135 58.0397 39.7122 55.6422 43.2937" stroke="white" stroke-linecap="round" stroke-linejoin="round"/>
</g>
</g>
</g>
</g>
</g>
<defs>
<clipPath id="clip0_207_2">
<rect width="80" height="80" fill="white"/>
</clipPath>
</defs>
</svg>
