<svg width="80" height="80" viewBox="0 0 80 80" fill="none" xmlns="http://www.w3.org/2000/svg">
<g id="skill-icons:figma-dark" clip-path="url(#clip0_207_24)">
<g id="Group">
<path id="Vector" d="M61.25 0H18.75C8.39466 0 0 8.39466 0 18.75V61.25C0 71.6053 8.39466 80 18.75 80H61.25C71.6053 80 80 71.6053 80 61.25V18.75C80 8.39466 71.6053 0 61.25 0Z" fill="#242938"/>
<g id="Clip path group">
<mask id="mask0_207_24" style="mask-type:luminance" maskUnits="userSpaceOnUse" x="19" y="8" width="42" height="64">
<g id="skillIconsFigmaDark0">
<path id="Vector_2" d="M19.0625 8.75H60.7375V71.25H19.0625V8.75Z" fill="white"/>
</g>
</mask>
<g mask="url(#mask0_207_24)">
<g id="Group_2">
<path id="Vector_3" d="M29.4834 71.25C35.2334 71.25 39.9 66.5834 39.9 60.8334V50.4166H29.4834C23.7334 50.4166 19.0666 55.0834 19.0666 60.8334C19.0666 66.5834 23.7334 71.25 29.4834 71.25Z" fill="#0ACF83"/>
<path id="Vector_4" d="M19.0666 40C19.0666 34.25 23.7334 29.5834 29.4834 29.5834H39.9V50.4166H29.4834C23.7334 50.4166 19.0666 45.75 19.0666 40Z" fill="#A259FF"/>
<path id="Vector_5" d="M19.0666 19.1666C19.0666 13.4166 23.7334 8.75 29.4834 8.75H39.9V29.5834H29.4834C23.7334 29.5834 19.0666 24.9166 19.0666 19.1666Z" fill="#F24E1E"/>
<path id="Vector_6" d="M39.9 8.75H50.3166C56.0666 8.75 60.7334 13.4166 60.7334 19.1666C60.7334 24.9166 56.0666 29.5834 50.3166 29.5834H39.9V8.75Z" fill="#FF7262"/>
<path id="Vector_7" d="M60.7334 40C60.7334 45.75 56.0666 50.4166 50.3166 50.4166C44.5666 50.4166 39.9 45.75 39.9 40C39.9 34.25 44.5666 29.5834 50.3166 29.5834C56.0666 29.5834 60.7334 34.25 60.7334 40Z" fill="#1ABCFE"/>
</g>
</g>
</g>
</g>
</g>
<defs>
<clipPath id="clip0_207_24">
<rect width="80" height="80" fill="white"/>
</clipPath>
</defs>
</svg>
