<svg width="80" height="80" viewBox="0 0 80 80" fill="none" xmlns="http://www.w3.org/2000/svg">
<g id="vscode-icons:file-type-firebase" clip-path="url(#clip0_207_66)">
<path id="Vector" d="M61.25 0H18.75C8.39466 0 0 8.39466 0 18.75V61.25C0 71.6053 8.39466 80 18.75 80H61.25C71.6053 80 80 71.6053 80 61.25V18.75C80 8.39466 71.6053 0 61.25 0Z" fill="#242938"/>
<path id="Vector_2" d="M14.5 61.5L14.925 60.9075L34.975 22.8725L35.0175 22.47L26.18 5.87C26.0182 5.56645 25.7651 5.32145 25.4564 5.16966C25.1477 5.01788 24.7991 4.967 24.4599 5.02423C24.1207 5.08145 23.8081 5.24388 23.5663 5.48853C23.3245 5.73318 23.1657 6.04767 23.1125 6.3875L14.5 61.5Z" fill="#FFC24A"/>
<path id="Vector_3" d="M14.75 61.05L15.07 60.425L34.9125 22.785L26.0975 6.12C25.9521 5.83018 25.7168 5.59527 25.4267 5.45045C25.1366 5.30563 24.8074 5.25871 24.4884 5.31671C24.1694 5.37471 23.8778 5.53451 23.6572 5.77217C23.4367 6.00983 23.299 6.31256 23.265 6.635L14.75 61.05Z" fill="#FFA712"/>
<path id="Vector_4" d="M41.46 35.025L48.04 28.275L41.4575 15.7225C41.3126 15.4523 41.0972 15.2265 40.8342 15.0691C40.5711 14.9117 40.2703 14.8286 39.9638 14.8286C39.6572 14.8286 39.3564 14.9117 39.0934 15.0691C38.8303 15.2265 38.6149 15.4523 38.47 15.7225L34.9525 22.4275V23L41.46 35.025Z" fill="#F4BD62"/>
<path id="Vector_5" d="M41.3425 34.75L47.74 28.2L41.3425 16C41.2378 15.7359 41.0589 15.5078 40.8275 15.343C40.596 15.1783 40.3219 15.0841 40.0381 15.0717C39.7543 15.0592 39.4729 15.1292 39.228 15.2731C38.983 15.4169 38.7849 15.6286 38.6575 15.8825L35.1225 22.705L35.0175 23.0525L41.3425 34.75Z" fill="#FFA50E"/>
<path id="Vector_6" d="M14.505 61.5025L14.6975 61.3075L15.395 61.025L41.045 35.47L41.37 34.585L34.9725 22.39L14.505 61.5025Z" fill="#F6820C"/>
<path id="Vector_7" d="M42.28 74.39L65.5 61.4425L58.865 20.615C58.8174 20.3272 58.6915 20.058 58.501 19.8371C58.3105 19.6162 58.0628 19.452 57.7851 19.3627C57.5074 19.2733 57.2105 19.2622 56.9269 19.3305C56.6433 19.3988 56.384 19.544 56.1775 19.75L14.5 61.5L37.5825 74.3875C38.3001 74.7879 39.1082 74.9981 39.93 74.9981C40.7518 74.9981 41.5599 74.7879 42.2775 74.3875" fill="#FDE068"/>
<path id="Vector_8" d="M65.2875 61.335L58.7075 20.815C58.6959 20.5397 58.6029 20.2741 58.4402 20.0517C58.2775 19.8293 58.0526 19.6601 57.7937 19.5656C57.5349 19.4712 57.2539 19.4556 56.9862 19.5209C56.7185 19.5862 56.4762 19.7294 56.29 19.9325L14.75 61.4225L37.5775 74.1725C38.2894 74.5697 39.0911 74.7781 39.9062 74.7781C40.7214 74.7781 41.5231 74.5697 42.235 74.1725L65.2875 61.335Z" fill="#FCCA3F"/>
<path id="Vector_9" d="M42.28 74C41.5624 74.4004 40.7543 74.6107 39.9325 74.6107C39.1107 74.6107 38.3026 74.4004 37.585 74L14.69 61.305L14.5 61.5L37.5825 74.3875C38.3001 74.7879 39.1082 74.9982 39.93 74.9982C40.7518 74.9982 41.5599 74.7879 42.2775 74.3875L65.5 61.4425L65.4425 61.0925L42.28 74Z" fill="#EEAB37"/>
</g>
<defs>
<clipPath id="clip0_207_66">
<rect width="80" height="80" fill="white"/>
</clipPath>
</defs>
</svg>
