<svg width="80" height="80" viewBox="0 0 80 80" fill="none" xmlns="http://www.w3.org/2000/svg">
<g id="skill-icons:git" clip-path="url(#clip0_7_63)">
<g id="Group">
<path id="Vector" d="M61.25 0H18.75C8.39466 0 0 8.39466 0 18.75V61.25C0 71.6053 8.39466 80 18.75 80H61.25C71.6053 80 80 71.6053 80 61.25V18.75C80 8.39466 71.6053 0 61.25 0Z" fill="#F03C2E"/>
<g id="Clip path group">
<mask id="mask0_7_63" style="mask-type:luminance" maskUnits="userSpaceOnUse" x="8" y="8" width="64" height="64">
<g id="skillIconsGit0">
<path id="Vector_2" d="M8.75 8.75H71.25V71.25H8.75V8.75Z" fill="white"/>
</g>
</mask>
<g mask="url(#mask0_7_63)">
<g id="Group_2">
<path id="Vector_3" d="M70.0703 37.2169L42.7831 9.92969C42.2205 9.36643 41.5034 8.98282 40.7227 8.82744C39.9419 8.67206 39.1326 8.75192 38.3972 9.05688C37.909 9.25922 37.4654 9.55581 37.0919 9.92969L31.4278 15.5938L38.6153 22.7813C40.2872 22.1953 42.2012 22.5956 43.5331 23.9278C44.1672 24.563 44.6098 25.3638 44.8104 26.2386C45.0111 27.1134 44.9616 28.027 44.6678 28.875L51.5956 35.8028C53.2716 35.2247 55.205 35.5975 56.5428 36.9394C57.2129 37.6092 57.6693 38.4629 57.854 39.3922C58.0387 40.3215 57.9436 41.2848 57.5806 42.16C57.094 43.3334 56.1613 44.2656 54.9876 44.7516C53.8139 45.2375 52.4953 45.2375 51.3216 44.7516C50.7403 44.5106 50.2122 44.1578 49.7675 43.7128C48.3612 42.3066 48.0138 40.2363 48.7247 38.5038L42.2638 32.0428V49.045C42.7328 49.277 43.1614 49.583 43.5331 49.9513C44.4313 50.8495 44.936 52.0677 44.936 53.338C44.936 54.6082 44.4313 55.8265 43.5331 56.7247C42.6349 57.6229 41.4167 58.1275 40.1464 58.1275C38.8761 58.1275 37.6579 57.6229 36.7597 56.7247C36.0893 56.0551 35.6327 55.2017 35.4476 54.2725C35.2626 53.3432 35.3575 52.38 35.7203 51.5047C35.9612 50.9235 36.3144 50.3956 36.7597 49.9513C37.2225 49.4903 37.7362 49.1406 38.3281 48.9063V31.7459C37.7409 31.5058 37.2076 31.1506 36.7597 30.7013C36.0872 30.0295 35.63 29.1727 35.4463 28.2401C35.2627 27.3075 35.3609 26.3413 35.7284 25.4647L28.6388 18.3791L9.92781 37.0703C9.36453 37.6332 8.98088 38.3505 8.8254 39.1315C8.66993 39.9125 8.74961 40.7221 9.05438 41.4578C9.25691 41.9463 9.55371 42.39 9.92781 42.7638L37.2169 70.0488C37.5905 70.4225 38.034 70.7191 38.5222 70.9216C39.5085 71.3298 40.6165 71.3298 41.6028 70.9216C42.091 70.7191 42.5345 70.4225 42.9081 70.0488L70.0703 42.9297C70.4443 42.556 70.741 42.1122 70.9435 41.6238C71.1459 41.1354 71.2502 40.6119 71.2503 40.0831C71.2503 39.5543 71.1461 39.0307 70.9437 38.5422C70.7412 38.0538 70.4444 37.61 70.0703 37.2363" fill="white"/>
</g>
</g>
</g>
</g>
</g>
<defs>
<clipPath id="clip0_7_63">
<rect width="80" height="80" fill="white"/>
</clipPath>
</defs>
</svg>
