<svg width="80" height="80" viewBox="0 0 80 80" fill="none" xmlns="http://www.w3.org/2000/svg">
<g id="skill-icons:javascript" clip-path="url(#clip0_7_52)">
<g id="Group">
<path id="Vector" d="M61.25 0H18.75C8.39466 0 0 8.39466 0 18.75V61.25C0 71.6053 8.39466 80 18.75 80H61.25C71.6053 80 80 71.6053 80 61.25V18.75C80 8.39466 71.6053 0 61.25 0Z" fill="#F0DB4F"/>
<path id="Vector_2" d="M21.035 66.8538L27.1569 63.1488C28.3381 65.2428 29.4125 67.0147 31.9897 67.0147C34.46 67.0147 36.0175 66.0484 36.0175 62.2897V36.7278H43.5356V62.3959C43.5356 70.1825 38.9712 73.7269 32.3119 73.7269C26.2978 73.7269 22.8069 70.6122 21.0347 66.8531M47.6191 66.0481L53.7403 62.5041C55.3519 65.1356 57.4463 67.0688 61.1513 67.0688C64.2666 67.0688 66.2528 65.5113 66.2528 63.3631C66.2528 60.7856 64.2122 59.8725 60.7753 58.3694L58.8962 57.5634C53.4722 55.2547 49.8741 52.3547 49.8741 46.2328C49.8741 40.5941 54.1703 36.2978 60.8831 36.2978C65.6625 36.2978 69.0994 37.9628 71.5694 42.3125L65.7159 46.0716C64.4269 43.7625 63.0312 42.8497 60.8831 42.8497C58.6812 42.8497 57.285 44.2459 57.285 46.0716C57.285 48.3269 58.6812 49.24 61.9031 50.6366L63.7825 51.4419C70.1728 54.1809 73.7709 56.9728 73.7709 63.2556C73.7709 70.0225 68.4547 73.7275 61.3125 73.7275C54.3316 73.7275 49.8206 70.3981 47.6191 66.0481Z" fill="#323330"/>
</g>
</g>
<defs>
<clipPath id="clip0_7_52">
<rect width="80" height="80" fill="white"/>
</clipPath>
</defs>
</svg>
