<svg width="80" height="80" viewBox="0 0 80 80" fill="none" xmlns="http://www.w3.org/2000/svg">
<g id="skill-icons:nodejs-light" clip-path="url(#clip0_207_19)">
<g id="Group">
<path id="Vector" d="M61.25 0H18.75C8.39466 0 0 8.39466 0 18.75V61.25C0 71.6053 8.39466 80 18.75 80H61.25C71.6053 80 80 71.6053 80 61.25V18.75C80 8.39466 71.6053 0 61.25 0Z" fill="#F4F2ED"/>
<path id="Vector_2" d="M37.4619 9.72374C38.9991 8.84406 41.0009 8.83999 42.5366 9.72374C50.2622 14.0894 57.9903 18.4478 65.7147 22.8159C67.1678 23.6344 68.1394 25.2512 68.1247 26.9253V53.1894C68.1356 54.9328 67.0678 56.5884 65.535 57.3881C57.8347 61.7297 50.1381 66.0762 42.4391 70.4178C40.8706 71.3147 38.8284 71.2456 37.3084 70.275C35 68.9369 32.6875 67.605 30.3787 66.2681C29.9069 65.9869 29.375 65.7631 29.0419 65.3056C29.3366 64.9087 29.8631 64.8594 30.2909 64.6859C31.2544 64.3794 32.1397 63.8875 33.0247 63.4103C33.2488 63.2572 33.5219 63.3159 33.7366 63.4528C35.7106 64.5847 37.6675 65.7497 39.6481 66.8706C40.0706 67.1147 40.4984 66.7906 40.8597 66.5894C48.4159 62.3184 55.9816 58.0641 63.5369 53.7919C63.8169 53.6572 63.9716 53.36 63.9487 53.0534C63.9541 44.3894 63.95 35.7241 63.9516 27.0597C63.9834 26.7122 63.7822 26.3922 63.4675 26.2497C55.7941 21.9281 48.1241 17.6003 40.4519 13.2778C40.319 13.1864 40.1616 13.1373 40.0002 13.137C39.8389 13.1367 39.6813 13.1853 39.5481 13.2762C31.8756 17.6003 24.2075 21.9325 16.535 26.2534C16.2216 26.3962 16.0113 26.7109 16.0484 27.0597C16.05 35.7241 16.0484 44.3894 16.0484 53.0547C16.0351 53.2044 16.068 53.3545 16.1427 53.4849C16.2173 53.6153 16.3301 53.7197 16.4659 53.7841C18.5131 54.945 20.5631 56.0978 22.6119 57.255C23.7663 57.8759 25.1831 58.2453 26.4547 57.7694C27.5769 57.3669 28.3634 56.2216 28.3422 55.0303C28.3528 46.4169 28.3369 37.8022 28.35 29.1897C28.3219 28.8075 28.6847 28.4916 29.0566 28.5278C30.0403 28.5209 31.0253 28.5144 32.0091 28.5303C32.4197 28.5209 32.7022 28.9328 32.6516 29.3178C32.6475 37.9859 32.6622 46.6541 32.645 55.3219C32.6475 57.6322 31.6984 60.1459 29.5616 61.2762C26.9294 62.6397 23.6756 62.3506 21.075 61.0431C18.8238 59.9194 16.675 58.5931 14.4638 57.3894C12.9269 56.5941 11.8644 54.9319 11.8753 53.1897V26.9253C11.8591 25.2166 12.8694 23.5703 14.3675 22.7637C22.0666 18.4191 29.7644 14.0706 37.4619 9.72374Z" fill="#81CD39"/>
<path id="Vector_3" d="M44.1788 27.9172C47.5366 27.7009 51.1313 27.7891 54.1528 29.4434C56.4925 30.7109 57.7894 33.3716 57.8306 35.9706C57.7653 36.3209 57.3988 36.5144 57.0641 36.4903C56.09 36.4891 55.1153 36.5037 54.1413 36.4837C53.7278 36.4997 53.4878 36.1187 53.4359 35.7534C53.1559 34.5097 52.4775 33.2781 51.3072 32.6781C49.5103 31.7787 47.4272 31.8241 45.4675 31.8428C44.0375 31.9184 42.4994 32.0425 41.2875 32.8834C40.3572 33.5206 40.0747 34.8069 40.4066 35.8428C40.7197 36.5866 41.5781 36.8266 42.2806 37.0478C46.3275 38.1062 50.6156 38.0006 54.5847 39.3934C56.2284 39.9612 57.8359 41.0653 58.3984 42.7859C59.1344 45.0922 58.8119 47.8484 57.1709 49.6997C55.8403 51.2231 53.9025 52.0525 51.9697 52.5028C49.3984 53.0762 46.73 53.0909 44.1187 52.8362C41.6634 52.5562 39.1081 51.9112 37.2128 50.2384C35.5919 48.8309 34.8003 46.6378 34.8788 44.5216C34.8975 44.1641 35.2534 43.9147 35.5959 43.9441C36.5769 43.9362 37.5581 43.9334 38.5391 43.9456C38.9309 43.9175 39.2216 44.2562 39.2416 44.6256C39.4225 45.8103 39.8678 47.0541 40.9009 47.7562C42.895 49.0428 45.3972 48.9547 47.6803 48.9906C49.5716 48.9069 51.695 48.8816 53.2388 47.6312C54.0531 46.9181 54.2944 45.725 54.0744 44.6987C53.8359 43.8322 52.9294 43.4284 52.1509 43.1644C48.1562 41.9009 43.82 42.3594 39.8641 40.9303C38.2578 40.3628 36.7047 39.2897 36.0878 37.6397C35.2269 35.3044 35.6213 32.4156 37.4341 30.6272C39.2016 28.8475 41.7528 28.1622 44.1788 27.9172Z" fill="#81CD39"/>
</g>
</g>
<defs>
<clipPath id="clip0_207_19">
<rect width="80" height="80" fill="white"/>
</clipPath>
</defs>
</svg>
