<svg width="80" height="80" viewBox="0 0 80 80" fill="none" xmlns="http://www.w3.org/2000/svg">
<g id="skill-icons:react-dark" clip-path="url(#clip0_7_39)">
<g id="Group">
<path id="Vector" d="M61.25 0H18.75C8.39466 0 0 8.39466 0 18.75V61.25C0 71.6053 8.39466 80 18.75 80H61.25C71.6053 80 80 71.6053 80 61.25V18.75C80 8.39466 71.6053 0 61.25 0Z" fill="#242938"/>
<path id="Vector_2" d="M40.0003 45.9222C43.2203 45.9222 45.8303 43.3119 45.8303 40.0922C45.8303 36.8725 43.2203 34.2622 40.0003 34.2622C36.7806 34.2622 34.1703 36.8725 34.1703 40.0922C34.1703 43.3119 36.7806 45.9222 40.0003 45.9222Z" fill="#00D8FF"/>
<path id="Vector_3" d="M40.0006 28.2384C47.8281 28.2384 55.0997 29.3616 60.5825 31.2494C67.1884 33.5234 71.25 36.9706 71.25 40.0922C71.25 43.345 66.9456 47.0072 59.8516 49.3575C54.4884 51.1344 47.4309 52.0619 40.0006 52.0619C32.3825 52.0619 25.1684 51.1912 19.7447 49.3378C12.8828 46.9925 8.75 43.2831 8.75 40.0922C8.75 36.9959 12.6281 33.5753 19.1412 31.3047C24.6444 29.3859 32.0953 28.2384 39.9994 28.2384H40.0006Z" stroke="#00D8FF" stroke-width="2"/>
<path id="Vector_4" d="M29.6816 34.1994C33.5922 27.4188 38.1975 21.6806 42.5719 17.8744C47.8419 13.2878 52.8575 11.4916 55.5612 13.0506C58.3791 14.6756 59.4012 20.2344 57.8934 27.5538C56.7544 33.0872 54.0312 39.6641 50.3191 46.1009C46.5131 52.7003 42.1553 58.5147 37.8406 62.2859C32.3809 67.0584 27.1025 68.7856 24.3384 67.1916C21.6562 65.6459 20.6306 60.5769 21.9175 53.8003C23.0047 48.0744 25.7331 41.0466 29.6803 34.1994H29.6816Z" stroke="#00D8FF" stroke-width="2"/>
<path id="Vector_5" d="M29.6913 46.1181C25.7697 39.345 23.0997 32.4881 21.9853 26.7975C20.6438 19.9409 21.5922 14.6987 24.2938 13.135C27.1091 11.505 32.435 13.3956 38.0231 18.3575C42.2481 22.1087 46.5866 27.7516 50.3094 34.1822C54.1263 40.7753 56.9869 47.455 58.0997 53.0762C59.5078 60.19 58.3681 65.6253 55.6066 67.2237C52.9272 68.775 48.0238 67.1328 42.7953 62.6334C38.3778 58.8322 33.6516 52.9587 29.6913 46.1181Z" stroke="#00D8FF" stroke-width="2"/>
</g>
</g>
<defs>
<clipPath id="clip0_7_39">
<rect width="80" height="80" fill="white"/>
</clipPath>
</defs>
</svg>
