<svg width="100" height="100" viewBox="0 0 100 100" fill="none" xmlns="http://www.w3.org/2000/svg">
<g id="skill-icons:github-dark" clip-path="url(#clip0_24_14)">
<g id="Group">
<path id="Vector" d="M76.5625 0H23.4375C10.4933 0 0 10.4933 0 23.4375V76.5625C0 89.5067 10.4933 100 23.4375 100H76.5625C89.5067 100 100 89.5067 100 76.5625V23.4375C100 10.4933 89.5067 0 76.5625 0Z" fill="#242938"/>
<path id="Vector_2" d="M50.0004 11.7188C28.4293 11.7188 10.9375 29.207 10.9375 50.7816C10.9375 68.0406 22.1301 82.6828 37.6512 87.848C39.6031 88.2098 40.3199 87.0008 40.3199 85.9691C40.3199 85.0375 40.2836 81.9605 40.2668 78.6965C29.3996 81.0594 27.1066 74.0875 27.1066 74.0875C25.3293 69.5723 22.7691 68.3719 22.7691 68.3719C19.225 65.9473 23.0363 65.9973 23.0363 65.9973C26.959 66.2727 29.0246 70.0227 29.0246 70.0227C32.5086 75.9945 38.1629 74.268 40.3918 73.2699C40.7426 70.7449 41.7547 69.0219 42.8719 68.0465C34.1953 67.0586 25.075 63.709 25.075 48.7414C25.075 44.4766 26.6008 40.9918 29.0996 38.2562C28.6938 37.2723 27.3566 33.2992 29.4777 27.9187C29.4777 27.9187 32.7582 26.8687 40.223 31.9227C43.3391 31.0574 46.6805 30.6234 50.0004 30.6086C53.3199 30.6234 56.6645 31.0574 59.7859 31.923C67.2418 26.8687 70.5176 27.9191 70.5176 27.9191C72.6437 33.2992 71.3063 37.2727 70.9004 38.2562C73.4051 40.9918 74.9207 44.4766 74.9207 48.7414C74.9207 63.7449 65.7824 67.0484 57.084 68.0152C58.4852 69.2277 59.7336 71.6047 59.7336 75.2492C59.7336 80.4758 59.6883 84.6824 59.6883 85.9691C59.6883 87.0086 60.3914 88.2266 62.3715 87.843C77.884 82.6719 89.0625 68.0348 89.0625 50.7816C89.0625 29.2074 71.5731 11.7188 50.0004 11.7188ZM25.568 67.3644C25.482 67.5586 25.1766 67.6168 24.8984 67.4836C24.6148 67.3562 24.4559 67.0914 24.5477 66.8969C24.6316 66.6969 24.9379 66.6414 25.2203 66.7754C25.5043 66.9027 25.666 67.1699 25.568 67.3644ZM27.4895 69.0789C27.3031 69.2519 26.9387 69.1715 26.6918 68.8984C26.4363 68.6262 26.3883 68.2621 26.5773 68.0867C26.7691 67.9141 27.1227 67.9949 27.3785 68.2672C27.634 68.543 27.684 68.9043 27.4895 69.0789ZM28.8074 71.2726C28.568 71.4391 28.1766 71.2832 27.9348 70.9355C27.6953 70.5883 27.6953 70.1719 27.9398 70.0047C28.1824 69.8379 28.568 69.9879 28.8133 70.3328C29.052 70.6859 29.052 71.1027 28.8074 71.2726ZM31.0367 73.8133C30.8227 74.0492 30.3668 73.9859 30.0328 73.6637C29.6914 73.3488 29.5961 72.902 29.8109 72.6656C30.0277 72.4289 30.4863 72.4957 30.8227 72.8152C31.1617 73.1293 31.2652 73.5797 31.0367 73.8133ZM33.918 74.6707C33.8234 74.9769 33.3844 75.116 32.9418 74.9859C32.5004 74.852 32.2109 74.4937 32.3004 74.1844C32.3922 73.8766 32.8332 73.7316 33.2789 73.8707C33.7203 74.0039 34.0098 74.3598 33.918 74.6707ZM37.1969 75.0348C37.2078 75.3566 36.8328 75.6238 36.3684 75.6297C35.9012 75.6402 35.5234 75.3793 35.5184 75.0625C35.5184 74.7371 35.8852 74.4727 36.352 74.4648C36.8168 74.4559 37.1969 74.7145 37.1969 75.0348ZM40.418 74.9113C40.4738 75.2254 40.1512 75.5484 39.6898 75.6344C39.2363 75.7172 38.8164 75.523 38.759 75.2113C38.7027 74.8891 39.0312 74.5664 39.484 74.4828C39.9461 74.4027 40.3594 74.5918 40.418 74.9113Z" fill="white"/>
</g>
</g>
<defs>
<clipPath id="clip0_24_14">
<rect width="100" height="100" fill="white"/>
</clipPath>
</defs>
</svg>
