<svg width="100" height="100" viewBox="0 0 100 100" fill="none" xmlns="http://www.w3.org/2000/svg">
<g id="bi:medium" clip-path="url(#clip0_24_11)">
<path id="Vector" d="M76.5627 -6.69331e-06L23.4377 -2.04897e-06C10.4935 -9.17356e-07 0.00021454 10.4933 0.000215672 23.4375L0.000220316 76.5625C0.000221448 89.5067 10.4935 100 23.4377 100L76.5627 100C89.5069 100 100 89.5067 100 76.5625L100 23.4375C100 10.4933 89.5069 -7.82492e-06 76.5627 -6.69331e-06Z" fill="black"/>
<path id="Vector_2" d="M56.7057 50C56.7057 65.6462 45.1328 78.3333 30.85 78.3333C27.4598 78.3382 24.102 77.6093 20.9682 76.1881C17.8343 74.7669 14.9859 72.6813 12.5855 70.0503C10.1851 67.4193 8.27977 64.2945 6.97825 60.8542C5.67672 57.414 5.00451 53.7257 5 50C5 34.3474 16.5729 21.6667 30.85 21.6667C34.2406 21.6609 37.5991 22.3892 40.7336 23.81C43.8681 25.2308 46.7172 27.3163 49.1182 29.9474C51.5192 32.5785 53.425 35.7036 54.7269 39.1442C56.0288 42.5849 56.7012 46.2737 56.7057 50ZM85.0651 50C85.0651 64.7333 79.2786 76.6711 72.1401 76.6711C65.0016 76.6711 59.2151 64.727 59.2151 50C59.2151 35.2666 65.0016 23.3289 72.1401 23.3289C79.2786 23.3289 85.0651 35.2729 85.0651 50ZM96.6667 50C96.6667 63.197 94.6328 73.8944 92.1177 73.8944C89.6083 73.8944 87.5745 63.1907 87.5745 50C87.5745 36.8029 89.6083 26.1055 92.1234 26.1055C94.6328 26.1055 96.6667 36.8029 96.6667 50Z" fill="white"/>
</g>
<defs>
<clipPath id="clip0_24_11">
<rect width="100" height="100" fill="white"/>
</clipPath>
</defs>
</svg>
