<svg width="156" height="86" viewBox="0 0 156 86" fill="none" xmlns="http://www.w3.org/2000/svg">
<path d="M10.0531 63.0002L10.0531 38.8002H0.713126L0.713126 33.4002H25.8931L25.8931 38.8002H16.5731L16.5731 63.0002H10.0531ZM36.7356 63.3802C33.9223 63.3802 31.469 62.8336 29.3756 61.7402C27.2956 60.6469 25.6756 58.9802 24.5156 56.7402C23.369 54.4869 22.7956 51.6402 22.7956 48.2002C22.7956 44.7602 23.369 41.9202 24.5156 39.6802C25.6756 37.4269 27.2956 35.7536 29.3756 34.6602C31.469 33.5669 33.9223 33.0202 36.7356 33.0202C39.549 33.0202 41.9956 33.5736 44.0756 34.6802C46.169 35.7736 47.789 37.4469 48.9356 39.7002C50.0956 41.9402 50.6756 44.7736 50.6756 48.2002C50.6756 51.6269 50.0956 54.4669 48.9356 56.7202C47.789 58.9602 46.169 60.6336 44.0756 61.7402C41.9823 62.8336 39.5356 63.3802 36.7356 63.3802ZM36.7356 58.1402C38.2556 58.1402 39.5556 57.8136 40.6356 57.1602C41.729 56.4936 42.5623 55.4402 43.1356 54.0002C43.7223 52.5602 44.0156 50.6736 44.0156 48.3402C44.0156 45.9136 43.7223 43.9669 43.1356 42.5002C42.549 41.0202 41.709 39.9469 40.6156 39.2802C39.5356 38.6002 38.2423 38.2602 36.7356 38.2602C35.229 38.2602 33.929 38.5869 32.8356 39.2402C31.7556 39.8936 30.9223 40.9402 30.3356 42.3802C29.749 43.8202 29.4556 45.7136 29.4556 48.0602C29.4556 50.5002 29.7423 52.4602 30.3156 53.9402C30.9023 55.4069 31.7356 56.4736 32.8156 57.1402C33.909 57.8069 35.2156 58.1402 36.7356 58.1402ZM51.7056 63.0002L51.7056 33.4002H59.6056L68.2456 52.9602H67.4656L75.8656 33.4002H83.7656L83.7656 63.0002H77.7056L77.7056 39.0802H78.9856L70.4056 58.7202H65.0656L56.2056 39.0802H57.7656L57.7656 63.0002H51.7056ZM85.8447 63.0002L85.8447 33.4002H93.7447L102.385 52.9602H101.605L110.005 33.4002H117.905L117.905 63.0002H111.845L111.845 39.0802H113.125L104.545 58.7202H99.2047L90.3447 39.0802H91.9047L91.9047 63.0002H85.8447ZM126.884 63.0002L126.884 47.8402L128.204 52.6202L116.204 33.4002H123.104L131.204 46.4802H129.364L137.364 33.4002H143.764L132.064 52.6202L133.384 47.9402L133.384 63.0002H126.884Z" fill="white"/>
<path d="M136.21 66.5439C134.204 66.5439 132.594 65.9892 131.378 64.8799C130.183 63.7705 129.586 62.2665 129.586 60.3679C129.586 58.4479 130.172 56.9332 131.346 55.8239C132.54 54.7145 134.162 54.1599 136.21 54.1599C138.258 54.1599 139.868 54.7252 141.042 55.8559C142.236 56.9865 142.834 58.4905 142.834 60.3679C142.834 62.2239 142.226 63.7172 141.01 64.8479C139.815 65.9785 138.215 66.5439 136.21 66.5439Z" fill="#333333"/>
</svg>
